<svg id="visual" viewBox="0 0 900 450" width="900" height="450" xmlns="http://www.w3.org/2000/svg" xmlns:xlink="http://www.w3.org/1999/xlink" version="1.1"><rect x="0" y="0" width="900" height="450" fill="#19bc9c"/><defs><linearGradient id="grad1_0" x1="50%" y1="0%" x2="100%" y2="100%"><stop offset="10%" stop-color="#2c3f50" stop-opacity="1"/><stop offset="90%" stop-color="#2c3f50" stop-opacity="1"/></linearGradient></defs><defs><linearGradient id="grad1_1" x1="50%" y1="0%" x2="100%" y2="100%"><stop offset="10%" stop-color="#2c3f50" stop-opacity="1"/><stop offset="90%" stop-color="#19bc9c" stop-opacity="1"/></linearGradient></defs><defs><linearGradient id="grad2_0" x1="0%" y1="0%" x2="50%" y2="100%"><stop offset="10%" stop-color="#2c3f50" stop-opacity="1"/><stop offset="90%" stop-color="#2c3f50" stop-opacity="1"/></linearGradient></defs><defs><linearGradient id="grad2_1" x1="0%" y1="0%" x2="50%" y2="100%"><stop offset="10%" stop-color="#19bc9c" stop-opacity="1"/><stop offset="90%" stop-color="#2c3f50" stop-opacity="1"/></linearGradient></defs><g transform="translate(900, 0)"><path d="M0 360C-37.3 369 -74.5 378 -93.2 347.7C-111.8 317.5 -111.9 247.9 -127 220C-142.1 192 -172.3 205.7 -204.4 204.4C-236.4 203 -270.4 186.7 -281.5 162.5C-292.5 138.3 -280.5 106.1 -289.8 77.6C-299 49.2 -329.5 24.6 -360 0L0 0Z" fill="#007c8d"/><path d="M0 180C-18.6 184.5 -37.3 189 -46.6 173.9C-55.9 158.7 -55.9 124 -63.5 110C-71.1 96 -86.1 102.8 -102.2 102.2C-118.2 101.5 -135.2 93.4 -140.7 81.3C-146.2 69.1 -140.3 53 -144.9 38.8C-149.5 24.6 -164.8 12.3 -180 0L0 0Z" fill="#2c3f50"/></g><g transform="translate(0, 450)"><path d="M0 -360C37 -368.1 73.9 -376.2 93.2 -347.7C112.4 -319.3 114 -254.2 134 -232.1C154 -210 192.3 -230.8 229.1 -229.1C265.9 -227.4 301.3 -203.2 294.4 -170C287.6 -136.8 238.6 -94.8 242.4 -65C246.3 -35.1 303.2 -17.6 360 0L0 0Z" fill="#007c8d"/><path d="M0 -180C18.5 -184.1 37 -188.1 46.6 -173.9C56.2 -159.6 57 -127.1 67 -116C77 -105 96.1 -115.4 114.6 -114.6C133 -113.7 150.6 -101.6 147.2 -85C143.8 -68.4 119.3 -47.4 121.2 -32.5C123.2 -17.6 151.6 -8.8 180 0L0 0Z" fill="#2c3f50"/></g></svg>